<?xml version="1.0" encoding="utf-8"?>
<!-- Generator: Adobe Illustrator 19.0.1, SVG Export Plug-In . SVG Version: 6.00 Build 0)  -->
<svg version="1.1" id="Layer_1" xmlns="http://www.w3.org/2000/svg" xmlns:xlink="http://www.w3.org/1999/xlink" x="0px" y="0px"
	 viewBox="-238 377 135 39" style="enable-background:new -238 377 135 39;" xml:space="preserve">
<style type="text/css">
	.st0{fill:#181818;}
	.st1{fill:#DB001B;}
</style>
<title>Artboard</title>
<desc>Created with Sketch.</desc>
<path id="text" class="st0" d="M-173.2,381.6c-0.8-0.1-1.6-0.1-2.6-0.1c-2.6,0-4.6,0.6-5.9,1.8c-1.3,1.2-1.9,3-1.9,5.5v0.5h-2.7v4.3
	h2.7v15.5h6.4v-15.5h4.7v-4.3h-4.9v-0.2c0-1.3,0.2-2.2,0.7-2.6s1.3-0.7,2.5-0.7c0.5,0,1,0,1.5,0.2c0.5,0.1,0.8,0.2,1.1,0.3h0.5v-4.5
	C-171.7,381.7-172.4,381.6-173.2,381.6z M-156.3,381.6c-0.8-0.1-1.6-0.1-2.6-0.1c-2.6,0-4.6,0.6-5.9,1.8c-1.3,1.2-1.9,3-1.9,5.5v0.5
	h-2.7v4.3h2.7v15.5h6.4v-15.5h4.7v-4.3h-4.9v-0.2c0-1.3,0.2-2.2,0.7-2.6s1.3-0.7,2.5-0.7c0.5,0,1,0,1.5,0.2c0.5,0.1,0.8,0.2,1.1,0.3
	h0.5v-4.5C-154.9,381.7-155.6,381.6-156.3,381.6z M-132.9,391.5c-1.9-1.9-4.6-2.8-8-2.8c-3.4,0-6.1,0.9-8,2.8
	c-1.9,1.9-2.9,4.5-2.9,7.8c0,3.3,1,5.8,2.9,7.7c1.9,1.9,4.6,2.8,8,2.8s6.1-0.9,8-2.8c1.9-1.9,2.9-4.4,2.9-7.7
	S-131,393.4-132.9,391.5z M-137,402.3c-0.2,0.7-0.5,1.3-0.9,1.8c-0.4,0.5-0.8,0.8-1.3,1c-0.5,0.2-1.1,0.3-1.7,0.3
	c-0.7,0-1.3-0.1-1.8-0.3c-0.5-0.2-1-0.5-1.3-1c-0.4-0.5-0.7-1.1-0.9-1.9c-0.2-0.8-0.3-1.7-0.3-2.8c0-1.2,0.1-2.2,0.3-3
	c0.2-0.8,0.5-1.4,0.9-1.9c0.4-0.5,0.9-0.8,1.4-1c0.5-0.2,1-0.3,1.6-0.3s1.2,0.1,1.7,0.3c0.5,0.2,1,0.5,1.4,1
	c0.4,0.5,0.7,1.1,0.9,1.9c0.2,0.8,0.3,1.8,0.3,2.9C-136.7,400.5-136.8,401.5-137,402.3z M-106.5,391.5c-1.9-1.9-4.6-2.8-8-2.8
	c-3.4,0-6.1,0.9-8,2.8c-1.9,1.9-2.9,4.5-2.9,7.8c0,3.3,1,5.8,2.9,7.7c1.9,1.9,4.6,2.8,8,2.8s6.1-0.9,8-2.8c1.9-1.9,2.9-4.4,2.9-7.7
	S-104.6,393.4-106.5,391.5z M-110.6,402.3c-0.2,0.7-0.5,1.3-0.9,1.8c-0.4,0.5-0.8,0.8-1.3,1c-0.5,0.2-1.1,0.3-1.7,0.3
	c-0.7,0-1.3-0.1-1.8-0.3c-0.5-0.2-1-0.5-1.4-1c-0.4-0.5-0.7-1.1-0.9-1.9c-0.2-0.8-0.3-1.7-0.3-2.8c0-1.2,0.1-2.2,0.3-3
	s0.5-1.4,0.9-1.9c0.4-0.5,0.9-0.8,1.4-1c0.5-0.2,1-0.3,1.6-0.3s1.2,0.1,1.7,0.3c0.5,0.2,1,0.5,1.4,1c0.4,0.5,0.7,1.1,0.9,1.9
	c0.2,0.8,0.3,1.8,0.3,2.9C-110.3,400.5-110.4,401.5-110.6,402.3z"/>
<path class="st1" d="M-199.2,393.8l-1.3,1.1c0,0.5,0.1,1.1,0.1,1.6v0.1c0,10-8.1,18.1-18.1,18.1c-10,0-18.1-8.1-18.1-18.1
	c0-10,8.1-18.1,18.1-18.1c0.5,0,1,0,1.5,0.1v-1.5c-0.5,0-1-0.1-1.5-0.1c-10.8,0-19.5,8.7-19.5,19.5s8.7,19.5,19.5,19.5
	s19.5-8.7,19.5-19.5C-199,395.6-199.1,394.7-199.2,393.8z"/>
</svg>
